<svg version="1.1" xmlns="http://www.w3.org/2000/svg" viewBox="0 0 1000 1000">
    <g>
        <path d="M625.1,789.2c-18.4,0-34.4-16.1-34.4-34.4V325.6c0-18.4,16.1-34.4,34.4-34.4c18.4,0,34.4,13.8,34.4,34.4V757C659.5,773.1,645.7,789.2,625.1,789.2z" />
        <path d="M395.6,789.2c-18.4,0-34.4-16.1-34.4-34.4V325.6c0-18.4,16.1-34.4,34.4-34.4s34.4,13.8,34.4,34.4V757C430,773.1,413.9,789.2,395.6,789.2z" />
        <path d="M705.4,993.4H315.2c-105.6,0-183.6-91.8-183.6-195.1V321c0-18.4,16.1-34.4,34.4-34.4c18.4,0,34.4,16.1,34.4,34.4v477.4c0,66.6,48.2,126.2,114.8,126.2h390.2c64.3,0,114.8-62,114.8-126.2V321c0-18.4,16.1-34.4,34.4-34.4S889,302.6,889,321v477.4C889,901.6,808.7,993.4,705.4,993.4z" />
        <path d="M730.7,206.2c-18.4,0-34.4-16.1-34.4-34.4c0-96.4-27.5-96.4-41.3-96.4H358.9c-13.8,0-55.1,0-55.1,96.4c0,18.4-16.1,34.4-34.4,34.4c-18.4,0-34.4-16.1-34.4-34.4c0-41.3,16.1-165.2,123.9-165.2h296.1c73.4,0,110.2,55.1,110.2,165.2C765.1,190.2,749,206.2,730.7,206.2z" />
        <path d="M953.3,213.1H44.4C26.1,213.1,10,197,10,178.7c0-18.4,13.8-34.4,34.4-34.4h911.1c18.4,0,34.4,16.1,34.4,34.4C990,197,973.9,213.1,953.3,213.1z" />
    </g>
</svg>
